<svg id="Layer_1" data-name="Layer 1" xmlns="http://www.w3.org/2000/svg" viewBox="0 0 178.04 234.51"><defs><style>.cls-1{fill:#fff;}</style></defs><title>slash</title><path class="cls-1" d="M176.48,39.76a30.6,30.6,0,0,0,.72-4,4,4,0,0,0,0-2,18.48,18.48,0,0,1,.8-3.54c-.33-.42-.45-.75-.37-1a18.49,18.49,0,0,0,.22-6.58c-.32-1.74-.65-3.48-1-5.21l-.33-3.71c-.36-1.22-.72-2.53-1.1-3.89a21.08,21.08,0,0,1-.62-5.23q-1.84-.13-2.67-.15a5.73,5.73,0,0,0-1.35.11l-1,.71L170,5c-.08.23-.15.32-.22.29s-.06-.16,0-.39l-.49-2.6a2.49,2.49,0,0,1-.74-.57c-.24-.25-.74-.82-1.52-1.74-.75,1.2-1.08,1.69-1,1.47l-.32.23a3.51,3.51,0,0,0-1-.28,1.06,1.06,0,0,0-1,.49,11.21,11.21,0,0,0-2.93.9,32.35,32.35,0,0,0-3.49,1.8l-1,.7L151.62,7.2l0-.38-.38.51-.21.09-1.49,2.19L83.19,98.69l0,.58-6.27,7.4q-3.28,3.87-6.37,7.85-3.28,3.87-6.47,7.8t-6.47,7.8a1.85,1.85,0,0,1-.56.9,2,2,0,0,0-.56.9l.12-.33q-3.53,4.54-8,10A125.19,125.19,0,0,0,41,151.8q-6.52,9-12.93,17.57t-12.86,18a64.59,64.59,0,0,1-3.08,6q-3,5.17-6.34,11.4A61.48,61.48,0,0,0,.88,216.84a18.12,18.12,0,0,0-.74,7.7,10.58,10.58,0,0,0,2.35,5.7,31.75,31.75,0,0,0,2.47,2,6.47,6.47,0,0,0,3.44,1.32,8.61,8.61,0,0,0,3-1.24,12.13,12.13,0,0,0,3-2.43,2.36,2.36,0,0,0,.67.13,2.34,2.34,0,0,1,.86.23c-.24.67-.33,1-.26,1.06s.06.16,0,.38q1.5,3.1,2.8,2.77a8.79,8.79,0,0,0,2.91-1.5l1.81-1.07a2.91,2.91,0,0,1,.08-1.54l1.6.8a100.71,100.71,0,0,0,6.77-9.62,36.93,36.93,0,0,1,6.21-8.71,4.39,4.39,0,0,0,.16-1.11,4.71,4.71,0,0,1,.27-1.43l5.25-6.05,2-2.56c.74-.94,1.36-1.69,1.87-2.22a5.3,5.3,0,0,1,.92-1.9c.69-.18,1-.4,1.06-.65s.19-.43.54-.52l9.49-12.6,5.6-9,6.34-7.08a18.57,18.57,0,0,0,3.84-4.78L76.85,161a.94.94,0,0,1,.28-.45.93.93,0,0,0,.28-.46,37.71,37.71,0,0,1,3.91-4.94c1-.95,2-2.08,3.11-3.37a2,2,0,0,1,.76-.8Q88.26,147,91,144c1.81-2,3.69-3.93,5.65-5.85q6.88-8,12.5-15T121.44,108l-.12.34,6.25-7.52,8.54-9.92q3.4-4.22,7.55-8.84t7.55-8.83q2.17-2.07,3.91-4T158.07,66a3,3,0,0,1,1-1.47,15.61,15.61,0,0,1,3.8-4l.72-2,1.29-.94c1.14-1,2.28-2.07,3.4-3.22A23.88,23.88,0,0,0,171,51.18a33.35,33.35,0,0,0,2.12-3.27,23.63,23.63,0,0,0,1.72-3.48A27.22,27.22,0,0,0,176.48,39.76Z"/></svg>